{
    "asset" : {
        "generator" : "Khronos glTF Blender I/O v3.3.32",
        "version" : "2.0"
    },
    "scene" : 0,
    "scenes" : [
        {
            "name" : "Scene",
            "nodes" : [
                4
            ]
        }
    ],
    "nodes" : [
        {
            "mesh" : 0,
            "name" : "desna roka",
            "rotation" : [
                0.4030149579048157,
                -0.4113297760486603,
                0.07617546617984772,
                0.8139927387237549
            ],
            
            "scale" : [
                0.9218176007270813,
                0.8565937280654907,
                0.9185044765472412
            ],
            "translation" : [
                -0.2438749521970749,
                2.6355931758880615,
                -0.4213760793209076
            ]
        },
        {
            "mesh" : 1,
            "name" : "leva noga",
            "rotation" : [
                0.005998122040182352,
                4.7642042773077264e-05,
                -0.010860124602913857,
                0.999923050403595
            ],
            "scale" : [
                1.055993676185608,
                0.8228875398635864,
                0.7967963218688965
            ],
            "translation" : [
                -0.12293778359889984,
                1.3693324327468872,
                0.27474576234817505
            ]
        },
        {
            "mesh" : 2,
            "name" : "leva roka",
            "rotation" : [
                -0.13984684646129608,
                0.0945081114768982,
                0.02126532793045044,
                0.98542320728302
            ],
            "scale" : [
                1.0481505393981934,
                0.8218163847923279,
                0.808176577091217
            ],
            "translation" : [
                -0.20544753968715668,
                2.6416656970977783,
                0.3036780059337616
            ]
        },
        {
            "mesh" : 3,
            "name" : "noga desna",
            "scale" : [
                1.0560858249664307,
                0.8227730989456177,
                0.7967925071716309
            ],
            "translation" : [
                -0.11233685910701752,
                1.3697056770324707,
                -0.3853453993797302
            ]
        },
        {
            "children" : [
                0,
                1,
                2,
                3
            ],
            "extras" : {
                "collidable" : 1
            },
            "mesh" : 4,
            "name" : "telo",
            "scale" : [
                0.9468924403190613,
                1.2154018878936768,
                1.255031704902649
            ],
            "translation" : [
                0.10637091100215912,
                -0.001199483871459961,
                -0.00205070897936821
            ]
        }
    ],
    "meshes" : [
        {
            "name" : "Plane.003",
            "primitives" : [
                {
                    "attributes" : {
                        "POSITION" : 0,
                        "NORMAL" : 1
                    },
                    "indices" : 2
                }
            ]
        },
        {
            "name" : "Plane",
            "primitives" : [
                {
                    "attributes" : {
                        "POSITION" : 3,
                        "NORMAL" : 4
                    },
                    "indices" : 5
                }
            ]
        },
        {
            "name" : "Plane.001",
            "primitives" : [
                {
                    "attributes" : {
                        "POSITION" : 6,
                        "NORMAL" : 7
                    },
                    "indices" : 8
                }
            ]
        },
        {
            "name" : "Plane.004",
            "primitives" : [
                {
                    "attributes" : {
                        "POSITION" : 9,
                        "NORMAL" : 10
                    },
                    "indices" : 11
                }
            ]
        },
        {
            "name" : "Cube.003",
            "primitives" : [
                {
                    "attributes" : {
                        "POSITION" : 12,
                        "NORMAL" : 13,
                        "TEXCOORD_0" : 14
                    },
                    "indices" : 15
                }
            ]
        }
    ],
    "accessors" : [
        {
            "bufferView" : 0,
            "componentType" : 5126,
            "count" : 1536,
            "max" : [
                0.287661612033844,
                0.019005417823791504,
                0.832488477230072
            ],
            "min" : [
                -0.4130460321903229,
                -1.6652172803878784,
                -0.1668524146080017
            ],
            "type" : "VEC3"
        },
        {
            "bufferView" : 1,
            "componentType" : 5126,
            "count" : 1536,
            "type" : "VEC3"
        },
        {
            "bufferView" : 2,
            "componentType" : 5123,
            "count" : 2304,
            "type" : "SCALAR"
        },
        {
            "bufferView" : 3,
            "componentType" : 5126,
            "count" : 896,
            "max" : [
                0.3843776285648346,
                5.960464477539063e-08,
                0.38471874594688416
            ],
            "min" : [
                -0.3843775987625122,
                -1.6525487899780273,
                -0.38403621315956116
            ],
            "type" : "VEC3"
        },
        {
            "bufferView" : 4,
            "componentType" : 5126,
            "count" : 896,
            "type" : "VEC3"
        },
        {
            "bufferView" : 5,
            "componentType" : 5123,
            "count" : 1344,
            "type" : "SCALAR"
        },
        {
            "bufferView" : 6,
            "componentType" : 5126,
            "count" : 1536,
            "max" : [
                0.28766149282455444,
                0.019005417823791504,
                0.8324885964393616
            ],
            "min" : [
                -0.4130461812019348,
                -1.6652172803878784,
                -0.16685229539871216
            ],
            "type" : "VEC3"
        },
        {
            "bufferView" : 7,
            "componentType" : 5126,
            "count" : 1536,
            "type" : "VEC3"
        },
        {
            "bufferView" : 8,
            "componentType" : 5123,
            "count" : 2304,
            "type" : "SCALAR"
        },
        {
            "bufferView" : 9,
            "componentType" : 5126,
            "count" : 896,
            "max" : [
                0.3843776285648346,
                0,
                0.37969157099723816
            ],
            "min" : [
                -0.3843776285648346,
                -1.6368480920791626,
                -0.38899460434913635
            ],
            "type" : "VEC3"
        },
        {
            "bufferView" : 10,
            "componentType" : 5126,
            "count" : 896,
            "type" : "VEC3"
        },
        {
            "bufferView" : 11,
            "componentType" : 5123,
            "count" : 1344,
            "type" : "SCALAR"
        },
        {
            "bufferView" : 12,
            "componentType" : 5126,
            "count" : 9088,
            "max" : [
                0.8586843013763428,
                3.867013454437256,
                0.9322015047073364
            ],
            "min" : [
                -1.2943341732025146,
                0.8534064292907715,
                -1.009840726852417
            ],
            "type" : "VEC3"
        },
        {
            "bufferView" : 13,
            "componentType" : 5126,
            "count" : 9088,
            "type" : "VEC3"
        },
        {
            "bufferView" : 14,
            "componentType" : 5126,
            "count" : 9088,
            "type" : "VEC2"
        },
        {
            "bufferView" : 15,
            "componentType" : 5123,
            "count" : 13632,
            "type" : "SCALAR"
        }
    ],
    "bufferViews" : [
        {
            "buffer" : 0,
            "byteLength" : 18432,
            "byteOffset" : 0,
            "target" : 34962
        },
        {
            "buffer" : 0,
            "byteLength" : 18432,
            "byteOffset" : 18432,
            "target" : 34962
        },
        {
            "buffer" : 0,
            "byteLength" : 4608,
            "byteOffset" : 36864,
            "target" : 34963
        },
        {
            "buffer" : 0,
            "byteLength" : 10752,
            "byteOffset" : 41472,
            "target" : 34962
        },
        {
            "buffer" : 0,
            "byteLength" : 10752,
            "byteOffset" : 52224,
            "target" : 34962
        },
        {
            "buffer" : 0,
            "byteLength" : 2688,
            "byteOffset" : 62976,
            "target" : 34963
        },
        {
            "buffer" : 0,
            "byteLength" : 18432,
            "byteOffset" : 65664,
            "target" : 34962
        },
        {
            "buffer" : 0,
            "byteLength" : 18432,
            "byteOffset" : 84096,
            "target" : 34962
        },
        {
            "buffer" : 0,
            "byteLength" : 4608,
            "byteOffset" : 102528,
            "target" : 34963
        },
        {
            "buffer" : 0,
            "byteLength" : 10752,
            "byteOffset" : 107136,
            "target" : 34962
        },
        {
            "buffer" : 0,
            "byteLength" : 10752,
            "byteOffset" : 117888,
            "target" : 34962
        },
        {
            "buffer" : 0,
            "byteLength" : 2688,
            "byteOffset" : 128640,
            "target" : 34963
        },
        {
            "buffer" : 0,
            "byteLength" : 109056,
            "byteOffset" : 131328,
            "target" : 34962
        },
        {
            "buffer" : 0,
            "byteLength" : 109056,
            "byteOffset" : 240384,
            "target" : 34962
        },
        {
            "buffer" : 0,
            "byteLength" : 72704,
            "byteOffset" : 349440,
            "target" : 34962
        },
        {
            "buffer" : 0,
            "byteLength" : 27264,
            "byteOffset" : 422144,
            "target" : 34963
        }
    ],
    "buffers" : [
        {
            "byteLength" : 449408,
            "uri" : "data:application/octet-stream;base64,"
        }
    ]
}
