{
    "asset" : {
        "generator" : "Khronos glTF Blender I/O v3.4.50",
        "version" : "2.0"
    },
    "scene" : 0,
    "scenes" : [
        {
            "name" : "Scene",
            "nodes" : [
                4,
                5
            ]
        }
    ],
    "nodes" : [
        {
            "extras" : {
                "collidable" : 1
            },
            "mesh" : 0,
            "name" : "desna_roka",
            "scale" : [
                1.0560860633850098,
                0.8227730989456177,
                0.7967926263809204
            ],
            "translation" : [
                -0.20544752478599548,
                2.6416659355163574,
                -0.39676228165626526
            ]
        },
        {
            "extras" : {
                "collidable" : 1
            },
            "mesh" : 1,
            "name" : "leva_noga",
            "scale" : [
                1.0560858249664307,
                0.8227730989456177,
                0.7967925071716309
            ],
            "translation" : [
                -0.12293778359889984,
                1.3693323135375977,
                0.27474576234817505
            ]
        },
        {
            "extras" : {
                "collidable" : 1
            },
            "mesh" : 2,
            "name" : "leva_roka",
            "scale" : [
                1.0560860633850098,
                0.8227730989456177,
                0.7967926263809204
            ],
            "translation" : [
                -0.20544753968715668,
                2.6416659355163574,
                0.35957688093185425
            ]
        },
        {
            "extras" : {
                "collidable" : 1
            },
            "mesh" : 3,
            "name" : "noga_desna",
            "scale" : [
                1.0560858249664307,
                0.8227730989456177,
                0.7967925071716309
            ],
            "translation" : [
                -0.11233684420585632,
                1.3697055578231812,
                -0.3853453993797302
            ]
        },
        {
            "children" : [
                0,
                1,
                2,
                3
            ],
            "extras" : {
                "collidable" : 1
            },
            "mesh" : 4,
            "name" : "telo",
            "rotation" : [
                0,
                0.8848173022270203,
                0,
                0.46593809127807617
            ],
            "scale" : [
                1.91831374168396,
                2.4622883796691895,
                2.5425751209259033
            ],
            "translation" : [
                0.6936912536621094,
                -0.0011987686157226562,
                0.16051483154296875
            ]
        },
        {
            "camera" : 0,
            "name" : "Camera",
            "rotation" : [
                -0.15815965831279755,
                0.5615323781967163,
                0.11037103831768036,
                0.804664671421051
            ],
            "translation" : [
                52.746421813964844,
                29.808574676513672,
                15.851140022277832
            ]
        }
    ],
    "cameras" : [
        {
            "name" : "Camera",
            "perspective" : {
                "aspectRatio" : 1.7777777777777777,
                "yfov" : 0.39959652046304894,
                "zfar" : 1000,
                "znear" : 0.10000000149011612
            },
            "type" : "perspective"
        }
    ],
    "materials" : [
        {
            "doubleSided" : true,
            "name" : "Material.011",
            "pbrMetallicRoughness" : {
                "baseColorTexture" : {
                    "index" : 0
                },
                "metallicFactor" : 0,
                "roughnessFactor" : 0.5
            }
        },
        {
            "doubleSided" : true,
            "name" : "Material.003",
            "pbrMetallicRoughness" : {
                "baseColorTexture" : {
                    "index" : 1
                },
                "metallicFactor" : 0,
                "roughnessFactor" : 0.5
            }
        },
        {
            "doubleSided" : true,
            "name" : "Material.004",
            "pbrMetallicRoughness" : {
                "baseColorTexture" : {
                    "index" : 2
                },
                "metallicFactor" : 0,
                "roughnessFactor" : 0.5
            }
        },
        {
            "doubleSided" : true,
            "name" : "Material.002",
            "pbrMetallicRoughness" : {
                "baseColorTexture" : {
                    "index" : 3
                },
                "metallicFactor" : 0,
                "roughnessFactor" : 0.5
            }
        },
        {
            "doubleSided" : true,
            "name" : "Material",
            "pbrMetallicRoughness" : {
                "baseColorTexture" : {
                    "index" : 4
                },
                "metallicFactor" : 0,
                "roughnessFactor" : 0.5
            }
        }
    ],
    "meshes" : [
        {
            "name" : "Plane.006",
            "primitives" : [
                {
                    "attributes" : {
                        "POSITION" : 0,
                        "TEXCOORD_0" : 1,
                        "NORMAL" : 2
                    },
                    "indices" : 3,
                    "material" : 0
                }
            ]
        },
        {
            "name" : "Plane",
            "primitives" : [
                {
                    "attributes" : {
                        "POSITION" : 4,
                        "TEXCOORD_0" : 5,
                        "NORMAL" : 6
                    },
                    "indices" : 7,
                    "material" : 1
                }
            ]
        },
        {
            "name" : "Plane.001",
            "primitives" : [
                {
                    "attributes" : {
                        "POSITION" : 8,
                        "TEXCOORD_0" : 9,
                        "NORMAL" : 10
                    },
                    "indices" : 11,
                    "material" : 2
                }
            ]
        },
        {
            "name" : "Plane.004",
            "primitives" : [
                {
                    "attributes" : {
                        "POSITION" : 12,
                        "TEXCOORD_0" : 13,
                        "NORMAL" : 14
                    },
                    "indices" : 15,
                    "material" : 3
                }
            ]
        },
        {
            "name" : "Cube.003",
            "primitives" : [
                {
                    "attributes" : {
                        "POSITION" : 16,
                        "TEXCOORD_0" : 17,
                        "NORMAL" : 18
                    },
                    "indices" : 19,
                    "material" : 4
                }
            ]
        }
    ],
    "textures" : [
        {
            "sampler" : 0,
            "source" : 0
        },
        {
            "sampler" : 0,
            "source" : 0
        },
        {
            "sampler" : 0,
            "source" : 0
        },
        {
            "sampler" : 0,
            "source" : 0
        },
        {
            "sampler" : 0,
            "source" : 1
        }
    ],
    "images" : [
        {
            "mimeType" : "image/png",
            "name" : "roke_noge.png",
            "uri" : "teksture_model/roke_noge.png"
        },
        {
            "mimeType" : "image/png",
            "name" : "telo.png",
            "uri" : "teksture_model/telo.png"
        }
    ],
    "accessors" : [
        {
            "bufferView" : 0,
            "componentType" : 5126,
            "count" : 1536,
            "max" : [
                0.32342803478240967,
                0.04235241189599037,
                -0.01096480805426836
            ],
            "min" : [
                -0.3772796392440796,
                -1.6418702602386475,
                -1.0740500688552856
            ],
            "type" : "VEC3"
        },
        {
            "bufferView" : 1,
            "componentType" : 5126,
            "count" : 1536,
            "type" : "VEC2"
        },
        {
            "bufferView" : 2,
            "componentType" : 5126,
            "count" : 1536,
            "type" : "VEC3"
        },
        {
            "bufferView" : 3,
            "componentType" : 5123,
            "count" : 2304,
            "type" : "SCALAR"
        },
        {
            "bufferView" : 4,
            "componentType" : 5126,
            "count" : 896,
            "max" : [
                0.3843776285648346,
                5.960464477539063e-08,
                0.38471874594688416
            ],
            "min" : [
                -0.3843775987625122,
                -1.6525487899780273,
                -0.38403621315956116
            ],
            "type" : "VEC3"
        },
        {
            "bufferView" : 5,
            "componentType" : 5126,
            "count" : 896,
            "type" : "VEC2"
        },
        {
            "bufferView" : 6,
            "componentType" : 5126,
            "count" : 896,
            "type" : "VEC3"
        },
        {
            "bufferView" : 7,
            "componentType" : 5123,
            "count" : 1344,
            "type" : "SCALAR"
        },
        {
            "bufferView" : 8,
            "componentType" : 5126,
            "count" : 1536,
            "max" : [
                0.28766149282455444,
                0.019005417823791504,
                0.8324885964393616
            ],
            "min" : [
                -0.4130461812019348,
                -1.6652172803878784,
                -0.23059679567813873
            ],
            "type" : "VEC3"
        },
        {
            "bufferView" : 9,
            "componentType" : 5126,
            "count" : 1536,
            "type" : "VEC2"
        },
        {
            "bufferView" : 10,
            "componentType" : 5126,
            "count" : 1536,
            "type" : "VEC3"
        },
        {
            "bufferView" : 11,
            "componentType" : 5123,
            "count" : 2304,
            "type" : "SCALAR"
        },
        {
            "bufferView" : 12,
            "componentType" : 5126,
            "count" : 896,
            "max" : [
                0.3843776285648346,
                0,
                0.37969157099723816
            ],
            "min" : [
                -0.3843776285648346,
                -1.6368480920791626,
                -0.38899460434913635
            ],
            "type" : "VEC3"
        },
        {
            "bufferView" : 13,
            "componentType" : 5126,
            "count" : 896,
            "type" : "VEC2"
        },
        {
            "bufferView" : 14,
            "componentType" : 5126,
            "count" : 896,
            "type" : "VEC3"
        },
        {
            "bufferView" : 15,
            "componentType" : 5123,
            "count" : 1344,
            "type" : "SCALAR"
        },
        {
            "bufferView" : 16,
            "componentType" : 5126,
            "count" : 9072,
            "max" : [
                0.8586843013763428,
                3.867013454437256,
                0.9322015047073364
            ],
            "min" : [
                -1.2943341732025146,
                0.8534064292907715,
                -1.009840726852417
            ],
            "type" : "VEC3"
        },
        {
            "bufferView" : 17,
            "componentType" : 5126,
            "count" : 9072,
            "type" : "VEC2"
        },
        {
            "bufferView" : 18,
            "componentType" : 5126,
            "count" : 9072,
            "type" : "VEC3"
        },
        {
            "bufferView" : 19,
            "componentType" : 5123,
            "count" : 13608,
            "type" : "SCALAR"
        }
    ],
    "bufferViews" : [
        {
            "buffer" : 0,
            "byteLength" : 18432,
            "byteOffset" : 0,
            "target" : 34962
        },
        {
            "buffer" : 0,
            "byteLength" : 12288,
            "byteOffset" : 18432,
            "target" : 34962
        },
        {
            "buffer" : 0,
            "byteLength" : 18432,
            "byteOffset" : 30720,
            "target" : 34962
        },
        {
            "buffer" : 0,
            "byteLength" : 4608,
            "byteOffset" : 49152,
            "target" : 34963
        },
        {
            "buffer" : 0,
            "byteLength" : 10752,
            "byteOffset" : 53760,
            "target" : 34962
        },
        {
            "buffer" : 0,
            "byteLength" : 7168,
            "byteOffset" : 64512,
            "target" : 34962
        },
        {
            "buffer" : 0,
            "byteLength" : 10752,
            "byteOffset" : 71680,
            "target" : 34962
        },
        {
            "buffer" : 0,
            "byteLength" : 2688,
            "byteOffset" : 82432,
            "target" : 34963
        },
        {
            "buffer" : 0,
            "byteLength" : 18432,
            "byteOffset" : 85120,
            "target" : 34962
        },
        {
            "buffer" : 0,
            "byteLength" : 12288,
            "byteOffset" : 103552,
            "target" : 34962
        },
        {
            "buffer" : 0,
            "byteLength" : 18432,
            "byteOffset" : 115840,
            "target" : 34962
        },
        {
            "buffer" : 0,
            "byteLength" : 4608,
            "byteOffset" : 134272,
            "target" : 34963
        },
        {
            "buffer" : 0,
            "byteLength" : 10752,
            "byteOffset" : 138880,
            "target" : 34962
        },
        {
            "buffer" : 0,
            "byteLength" : 7168,
            "byteOffset" : 149632,
            "target" : 34962
        },
        {
            "buffer" : 0,
            "byteLength" : 10752,
            "byteOffset" : 156800,
            "target" : 34962
        },
        {
            "buffer" : 0,
            "byteLength" : 2688,
            "byteOffset" : 167552,
            "target" : 34963
        },
        {
            "buffer" : 0,
            "byteLength" : 108864,
            "byteOffset" : 170240,
            "target" : 34962
        },
        {
            "buffer" : 0,
            "byteLength" : 72576,
            "byteOffset" : 279104,
            "target" : 34962
        },
        {
            "buffer" : 0,
            "byteLength" : 108864,
            "byteOffset" : 351680,
            "target" : 34962
        },
        {
            "buffer" : 0,
            "byteLength" : 27216,
            "byteOffset" : 460544,
            "target" : 34963
        }
    ],
    "samplers" : [
        {
            "magFilter" : 9729,
            "minFilter" : 9987
        }
    ],
    "buffers" : [
        {
            "byteLength" : 487760,
            "uri" : "MOZIC.bin"
        }
    ]
}
