{
    "asset" : {
        "generator" : "Khronos glTF Blender I/O v3.4.50",
        "version" : "2.0"
    },
    "scene" : 0,
    "scenes" : [
        {
            "name" : "Scene",
            "nodes" : [
                5
            ]
        }
    ],
    "nodes" : [
        {
            "camera" : 0,
            "name" : "Camera",
            "rotation" : [
                -0.15313909947872162,
                -0.4498279094696045,
                -0.11088891327381134,
                0.8728729486465454
            ],
            "scale" : [
                0.8920663595199585,
                0.846582293510437,
                0.9563825130462646
            ],
            "translation" : [
                -25.684181213378906,
                11.968975067138672,
                13.61542797088623
            ]
        },
        {
            "extras" : {
                "collidable" : 1
            },
            "mesh" : 0,
            "name" : "desna_roka",
            "rotation" : [
                -0.24398589134216309,
                -0.13275884091854095,
                0.9494300484657288,
                0.14638563990592957
            ],
            "scale" : [
                -0.9919102787971497,
                -0.8319132924079895,
                -0.8667095303535461
            ],
            "translation" : [
                -0.2059451937675476,
                2.6416656970977783,
                -0.43795692920684814
            ]
        },
        {
            "extras" : {
                "collidable" : 1
            },
            "mesh" : 1,
            "name" : "leva_noga",
            "rotation" : [
                0.005998121574521065,
                4.7642042773077264e-05,
                -0.010860124602913857,
                0.999923050403595
            ],
            "scale" : [
                1.055993676185608,
                0.8228875398635864,
                0.7967963218688965
            ],
            "translation" : [
                -0.12293778359889984,
                1.3693324327468872,
                0.27474576234817505
            ]
        },
        {
            "extras" : {
                "collidable" : 1
            },
            "mesh" : 2,
            "name" : "leva_roka",
            "rotation" : [
                -0.13275878131389618,
                0.2439858615398407,
                -0.14638562500476837,
                0.9494299292564392
            ],
            "scale" : [
                0.9919103384017944,
                0.8319132924079895,
                0.8667095303535461
            ],
            "translation" : [
                -0.20544753968715668,
                2.6416656970977783,
                0.3036780059337616
            ]
        },
        {
            "extras" : {
                "collidable" : 1
            },
            "mesh" : 3,
            "name" : "noga_desna",
            "scale" : [
                1.0560858249664307,
                0.8227730989456177,
                0.7967925071716309
            ],
            "translation" : [
                -0.11233685910701752,
                1.3697056770324707,
                -0.3853453993797302
            ]
        },
        {
            "children" : [
                0,
                1,
                2,
                3,
                4
            ],
            "extras" : {
                "collidable" : 1
            },
            "mesh" : 4,
            "name" : "telo",
            "scale" : [
                0.9468924403190613,
                1.2154018878936768,
                1.255031704902649
            ],
            "translation" : [
                0.10637091100215912,
                -0.001199483871459961,
                -0.00205070897936821
            ]
        }
    ],
    "cameras" : [
        {
            "name" : "Camera",
            "perspective" : {
                "aspectRatio" : 1.7777777777777777,
                "yfov" : 0.39959652046304894,
                "zfar" : 1000,
                "znear" : 0.10000000149011612
            },
            "type" : "perspective"
        }
    ],
    "materials" : [
        {
            "doubleSided" : true,
            "name" : "Material.005",
            "pbrMetallicRoughness" : {
                "metallicFactor" : 0,
                "roughnessFactor" : 0.5
            }
        },
        {
            "doubleSided" : true,
            "name" : "Material.003",
            "pbrMetallicRoughness" : {
                "metallicFactor" : 0,
                "roughnessFactor" : 0.5
            }
        },
        {
            "doubleSided" : true,
            "name" : "Material.004",
            "pbrMetallicRoughness" : {
                "metallicFactor" : 0,
                "roughnessFactor" : 0.5
            }
        },
        {
            "doubleSided" : true,
            "name" : "Material.002",
            "pbrMetallicRoughness" : {
                "metallicFactor" : 0,
                "roughnessFactor" : 0.5
            }
        },
        {
            "doubleSided" : true,
            "name" : "Material",
            "pbrMetallicRoughness" : {
                "metallicFactor" : 0,
                "roughnessFactor" : 0.5
            }
        }
    ],
    "meshes" : [
        {
            "name" : "Plane.002",
            "primitives" : [
                {
                    "attributes" : {
                        "POSITION" : 0,
                        "TEXCOORD_0" : 1,
                        "NORMAL" : 2
                    },
                    "indices" : 3,
                    "material" : 0
                }
            ]
        },
        {
            "name" : "Plane",
            "primitives" : [
                {
                    "attributes" : {
                        "POSITION" : 4,
                        "TEXCOORD_0" : 5,
                        "NORMAL" : 6
                    },
                    "indices" : 7,
                    "material" : 1
                }
            ]
        },
        {
            "name" : "Plane.001",
            "primitives" : [
                {
                    "attributes" : {
                        "POSITION" : 8,
                        "TEXCOORD_0" : 9,
                        "NORMAL" : 10
                    },
                    "indices" : 3,
                    "material" : 2
                }
            ]
        },
        {
            "name" : "Plane.004",
            "primitives" : [
                {
                    "attributes" : {
                        "POSITION" : 11,
                        "TEXCOORD_0" : 12,
                        "NORMAL" : 13
                    },
                    "indices" : 14,
                    "material" : 3
                }
            ]
        },
        {
            "name" : "Cube.003",
            "primitives" : [
                {
                    "attributes" : {
                        "POSITION" : 15,
                        "TEXCOORD_0" : 16,
                        "NORMAL" : 17
                    },
                    "indices" : 18,
                    "material" : 4
                }
            ]
        }
    ],
    "accessors" : [
        {
            "bufferView" : 0,
            "componentType" : 5126,
            "count" : 1536,
            "max" : [
                0.28766149282455444,
                0.019005417823791504,
                0.8324885964393616
            ],
            "min" : [
                -0.4130461812019348,
                -1.6652172803878784,
                -0.16685229539871216
            ],
            "type" : "VEC3"
        },
        {
            "bufferView" : 1,
            "componentType" : 5126,
            "count" : 1536,
            "type" : "VEC2"
        },
        {
            "bufferView" : 2,
            "componentType" : 5126,
            "count" : 1536,
            "type" : "VEC3"
        },
        {
            "bufferView" : 3,
            "componentType" : 5123,
            "count" : 2304,
            "type" : "SCALAR"
        },
        {
            "bufferView" : 4,
            "componentType" : 5126,
            "count" : 896,
            "max" : [
                0.3843776285648346,
                5.960464477539063e-08,
                0.38471874594688416
            ],
            "min" : [
                -0.3843775987625122,
                -1.6525487899780273,
                -0.38403621315956116
            ],
            "type" : "VEC3"
        },
        {
            "bufferView" : 5,
            "componentType" : 5126,
            "count" : 896,
            "type" : "VEC2"
        },
        {
            "bufferView" : 6,
            "componentType" : 5126,
            "count" : 896,
            "type" : "VEC3"
        },
        {
            "bufferView" : 7,
            "componentType" : 5123,
            "count" : 1344,
            "type" : "SCALAR"
        },
        {
            "bufferView" : 8,
            "componentType" : 5126,
            "count" : 1536,
            "max" : [
                0.28766149282455444,
                0.019005417823791504,
                0.8324885964393616
            ],
            "min" : [
                -0.4130461812019348,
                -1.6652172803878784,
                -0.16685229539871216
            ],
            "type" : "VEC3"
        },
        {
            "bufferView" : 9,
            "componentType" : 5126,
            "count" : 1536,
            "type" : "VEC2"
        },
        {
            "bufferView" : 10,
            "componentType" : 5126,
            "count" : 1536,
            "type" : "VEC3"
        },
        {
            "bufferView" : 11,
            "componentType" : 5126,
            "count" : 896,
            "max" : [
                0.3843776285648346,
                0,
                0.37969157099723816
            ],
            "min" : [
                -0.3843776285648346,
                -1.6368480920791626,
                -0.38899460434913635
            ],
            "type" : "VEC3"
        },
        {
            "bufferView" : 12,
            "componentType" : 5126,
            "count" : 896,
            "type" : "VEC2"
        },
        {
            "bufferView" : 13,
            "componentType" : 5126,
            "count" : 896,
            "type" : "VEC3"
        },
        {
            "bufferView" : 14,
            "componentType" : 5123,
            "count" : 1344,
            "type" : "SCALAR"
        },
        {
            "bufferView" : 15,
            "componentType" : 5126,
            "count" : 9072,
            "max" : [
                0.8586843013763428,
                3.867013454437256,
                0.9322015047073364
            ],
            "min" : [
                -1.2943341732025146,
                0.8534064292907715,
                -1.009840726852417
            ],
            "type" : "VEC3"
        },
        {
            "bufferView" : 16,
            "componentType" : 5126,
            "count" : 9072,
            "type" : "VEC2"
        },
        {
            "bufferView" : 17,
            "componentType" : 5126,
            "count" : 9072,
            "type" : "VEC3"
        },
        {
            "bufferView" : 18,
            "componentType" : 5123,
            "count" : 13608,
            "type" : "SCALAR"
        }
    ],
    "bufferViews" : [
        {
            "buffer" : 0,
            "byteLength" : 18432,
            "byteOffset" : 0,
            "target" : 34962
        },
        {
            "buffer" : 0,
            "byteLength" : 12288,
            "byteOffset" : 18432,
            "target" : 34962
        },
        {
            "buffer" : 0,
            "byteLength" : 18432,
            "byteOffset" : 30720,
            "target" : 34962
        },
        {
            "buffer" : 0,
            "byteLength" : 4608,
            "byteOffset" : 49152,
            "target" : 34963
        },
        {
            "buffer" : 0,
            "byteLength" : 10752,
            "byteOffset" : 53760,
            "target" : 34962
        },
        {
            "buffer" : 0,
            "byteLength" : 7168,
            "byteOffset" : 64512,
            "target" : 34962
        },
        {
            "buffer" : 0,
            "byteLength" : 10752,
            "byteOffset" : 71680,
            "target" : 34962
        },
        {
            "buffer" : 0,
            "byteLength" : 2688,
            "byteOffset" : 82432,
            "target" : 34963
        },
        {
            "buffer" : 0,
            "byteLength" : 18432,
            "byteOffset" : 85120,
            "target" : 34962
        },
        {
            "buffer" : 0,
            "byteLength" : 12288,
            "byteOffset" : 103552,
            "target" : 34962
        },
        {
            "buffer" : 0,
            "byteLength" : 18432,
            "byteOffset" : 115840,
            "target" : 34962
        },
        {
            "buffer" : 0,
            "byteLength" : 10752,
            "byteOffset" : 134272,
            "target" : 34962
        },
        {
            "buffer" : 0,
            "byteLength" : 7168,
            "byteOffset" : 145024,
            "target" : 34962
        },
        {
            "buffer" : 0,
            "byteLength" : 10752,
            "byteOffset" : 152192,
            "target" : 34962
        },
        {
            "buffer" : 0,
            "byteLength" : 2688,
            "byteOffset" : 162944,
            "target" : 34963
        },
        {
            "buffer" : 0,
            "byteLength" : 108864,
            "byteOffset" : 165632,
            "target" : 34962
        },
        {
            "buffer" : 0,
            "byteLength" : 72576,
            "byteOffset" : 274496,
            "target" : 34962
        },
        {
            "buffer" : 0,
            "byteLength" : 108864,
            "byteOffset" : 347072,
            "target" : 34962
        },
        {
            "buffer" : 0,
            "byteLength" : 27216,
            "byteOffset" : 455936,
            "target" : 34963
        }
    ],
    "buffers" : [
        {
            "byteLength" : 483152,
            "uri" : "MOZIC_REF_FIX.bin"
        }
    ]
}
